<svg xmlns="http://www.w3.org/2000/svg" xmlns:xlink="http://www.w3.org/1999/xlink" width="1024" zoomAndPan="magnify" viewBox="0 0 768 767.999994" height="1024" preserveAspectRatio="xMidYMid meet" version="1.0"><defs><clipPath id="id1"><path d="M 104.6875 88 L 663 88 L 663 681 L 104.6875 681 Z M 104.6875 88 " clip-rule="nonzero"/></clipPath></defs><g clip-path="url(#id1)"><path fill="rgb(30.979919%, 56.469727%, 76.078796%)" d="M 104.6875 186.085938 L 380.214844 88.039062 L 662.992188 184.570312 L 617.292969 548.902344 L 380.214844 680.027344 L 146.980469 550.601562 Z M 104.6875 186.085938 " fill-opacity="1" fill-rule="nonzero"/></g><path fill="rgb(24.708557%, 50.979614%, 72.549438%)" d="M 662.992188 184.570312 L 380.214844 88.039062 L 380.214844 680.027344 L 617.292969 548.902344 Z M 662.992188 184.570312 " fill-opacity="1" fill-rule="nonzero"/><path fill="rgb(100%, 100%, 100%)" d="M 380.640625 157.226562 L 208.945312 539.058594 L 273.015625 537.765625 L 307.613281 451.480469 L 461.175781 451.480469 L 498.773438 538.429688 L 559.863281 539.726562 Z M 381.066406 279.804688 L 439.160156 401.109375 L 330.40625 401.109375 L 381.230469 279.804688 Z M 381.066406 279.804688 " fill-opacity="1" fill-rule="nonzero"/></svg>