<svg xmlns="http://www.w3.org/2000/svg" xmlns:xlink="http://www.w3.org/1999/xlink" width="1024" zoomAndPan="magnify" viewBox="0 0 768 767.999994" height="1024" preserveAspectRatio="xMidYMid meet" version="1.0"><path fill="rgb(24.708557%, 50.979614%, 72.549438%)" d="M 227.324219 434.628906 C 224.433594 427.378906 221.484375 420.191406 218.535156 413.003906 C 211.28125 392.792969 214.171875 374.054688 228.800781 358.203125 C 240.476562 345.242188 255.046875 335.105469 274.039062 333.691406 C 285.71875 332.277344 295.921875 335.105469 304.648438 340.878906 C 306.125 342.351562 307.597656 342.351562 310.546875 343.765625 C 309.074219 339.464844 307.597656 336.578125 306.125 332.277344 C 291.554688 287.554688 275.511719 242.832031 260.886719 198.167969 C 255.046875 179.429688 250.683594 160.691406 246.316406 141.953125 C 246.316406 124.628906 247.734375 108.78125 253.570312 94.34375 C 265.25 69.832031 287.132812 64.117188 304.648438 67.003906 C 316.328125 69.832031 323.640625 77.078125 329.480469 85.742188 C 342.632812 103.003906 352.839844 121.742188 363.042969 141.953125 C 383.507812 182.316406 398.078125 225.566406 412.703125 268.816406 C 415.59375 277.476562 418.542969 284.667969 421.433594 293.328125 C 421.433594 294.742188 422.910156 294.742188 424.324219 296.214844 C 427.273438 287.554688 431.636719 278.894531 434.585938 268.816406 C 446.265625 232.753906 459.359375 196.753906 476.878906 163.578125 C 487.140625 141.953125 498.816406 118.855469 514.863281 100.117188 C 516.335938 95.816406 520.699219 92.929688 523.589844 90.042969 C 544.058594 71.304688 571.777344 77.078125 584.933594 94.34375 C 596.550781 108.78125 599.5 124.628906 598.027344 141.953125 C 595.136719 166.464844 587.820312 190.980469 580.507812 215.492188 C 567.414062 254.378906 552.785156 293.328125 539.632812 332.277344 C 539.632812 333.691406 538.21875 335.105469 538.21875 336.578125 C 541.109375 338.050781 544.058594 338.050781 546.949219 339.464844 C 564.464844 345.242188 581.984375 352.429688 592.1875 368.28125 C 599.5 379.828125 603.863281 392.792969 606.8125 405.8125 C 611.179688 427.378906 611.179688 449.003906 609.703125 470.6875 C 608.289062 499.503906 602.449219 528.316406 592.1875 554.300781 C 570.304688 607.628906 535.269531 649.402344 482.714844 675.390625 C 456.46875 688.351562 427.273438 697.015625 398.078125 698.429688 C 357.203125 702.789062 317.804688 697.015625 279.878906 681.164062 C 230.214844 660.953125 180.613281 610.515625 166.042969 564.378906 C 158.730469 541.277344 155.839844 519.65625 158.730469 495.140625 C 163.09375 464.914062 182.085938 444.703125 211.28125 436.042969 C 217.121094 436.042969 222.960938 436.042969 227.324219 434.628906 Z M 220.011719 515.351562 C 221.484375 518.238281 224.433594 519.65625 225.851562 522.542969 C 233.164062 531.203125 239.003906 539.863281 246.316406 548.527344 C 255.046875 558.601562 263.835938 568.679688 275.511719 573.039062 C 285.71875 577.339844 294.445312 577.339844 304.648438 573.039062 C 313.4375 568.679688 314.914062 562.964844 313.4375 554.300781 C 311.964844 551.414062 310.546875 548.527344 309.074219 545.640625 C 298.8125 525.429688 285.71875 506.691406 269.675781 490.839844 C 260.886719 482.179688 253.570312 473.515625 243.367188 466.328125 C 234.640625 459.140625 225.851562 459.140625 217.121094 464.914062 C 203.96875 473.515625 195.238281 485.066406 190.816406 500.917969 C 186.449219 516.765625 189.398438 532.617188 195.238281 547.054688 C 209.808594 586.003906 234.640625 617.703125 269.675781 639.328125 C 322.167969 672.503906 379.144531 679.691406 437.476562 660.953125 C 504.65625 639.328125 546.949219 591.777344 570.304688 526.902344 C 580.507812 499.503906 581.984375 469.214844 581.984375 440.402344 C 581.984375 425.964844 580.507812 411.53125 576.144531 398.566406 C 571.777344 387.015625 564.464844 376.941406 552.785156 371.167969 C 545.472656 368.28125 539.632812 365.390625 532.378906 362.503906 C 487.140625 346.65625 440.425781 342.351562 393.710938 338.050781 C 383.507812 338.050781 374.71875 338.050781 364.515625 340.878906 C 357.203125 343.765625 351.363281 348.128906 351.363281 356.789062 C 349.949219 374.054688 355.726562 388.492188 370.355469 398.566406 C 380.558594 405.8125 393.710938 410.117188 406.867188 413.003906 C 436.0625 418.777344 466.671875 418.777344 497.34375 418.777344 C 504.65625 418.777344 510.4375 418.777344 517.75 420.191406 C 525.066406 421.664062 526.539062 427.378906 527.957031 434.628906 C 529.429688 440.402344 525.066406 443.289062 520.699219 444.703125 C 511.914062 449.003906 504.65625 451.890625 495.871094 454.78125 C 460.835938 467.800781 434.585938 490.839844 415.59375 522.542969 C 402.441406 545.640625 398.078125 570.152344 408.28125 596.078125 C 411.230469 601.851562 412.703125 607.628906 414.121094 614.816406 C 415.59375 620.589844 417.070312 627.839844 415.59375 635.027344 C 401.027344 632.140625 392.238281 624.890625 384.925781 613.402344 C 379.144531 601.851562 376.195312 588.890625 374.71875 575.925781 C 373.246094 568.679688 373.246094 561.488281 373.246094 554.300781 C 364.515625 560.015625 354.3125 558.601562 344.109375 557.128906 C 344.109375 560.015625 345.523438 561.488281 345.523438 562.964844 C 349.949219 580.226562 342.632812 596.078125 328.007812 606.152344 C 316.328125 614.816406 301.761719 614.816406 288.605469 611.929688 C 265.25 606.152344 247.734375 591.777344 233.164062 573.039062 C 225.851562 562.964844 218.535156 551.414062 217.121094 539.863281 C 212.757812 528.316406 212.757812 522.542969 220.011719 515.351562 Z M 395.1875 314.953125 L 395.1875 313.539062 C 382.035156 274.589844 368.882812 234.230469 354.3125 195.28125 C 345.523438 170.769531 335.320312 144.839844 325.117188 120.328125 C 322.167969 113.140625 317.804688 105.894531 310.546875 100.117188 C 297.394531 91.515625 282.769531 95.816406 278.402344 110.195312 C 276.929688 116.027344 275.511719 121.742188 276.929688 127.519531 C 276.929688 144.839844 281.351562 160.691406 287.132812 176.542969 C 304.648438 224.152344 320.753906 271.703125 338.269531 319.253906 C 355.726562 307.765625 376.195312 314.953125 395.1875 314.953125 Z M 506.074219 330.804688 C 506.074219 329.390625 507.546875 329.390625 507.546875 327.917969 C 527.957031 273.175781 546.949219 218.378906 564.464844 162.105469 C 567.414062 150.617188 570.304688 140.539062 568.828125 127.519531 C 567.414062 116.027344 560.101562 110.195312 551.3125 108.78125 C 544.058594 108.78125 536.742188 111.667969 532.378906 117.441406 C 523.589844 127.519531 517.75 139.066406 513.386719 150.617188 C 490.03125 205.355469 472.511719 261.628906 453.578125 317.839844 C 453.578125 317.839844 453.578125 319.253906 453.578125 320.726562 C 469.621094 323.617188 487.140625 326.503906 506.074219 330.804688 Z M 373.246094 503.804688 C 373.246094 500.917969 373.246094 498.03125 371.832031 495.140625 C 367.464844 485.066406 364.515625 474.992188 360.152344 463.441406 C 348.472656 436.042969 333.847656 408.640625 314.914062 384.128906 C 309.074219 376.941406 301.761719 369.753906 293.03125 365.390625 C 274.039062 356.789062 246.316406 374.054688 247.734375 395.679688 L 247.734375 397.152344 C 250.683594 404.339844 252.15625 413.003906 255.046875 420.191406 C 271.089844 451.890625 293.03125 479.292969 317.804688 505.277344 C 325.117188 512.464844 333.847656 519.65625 344.109375 524.015625 C 358.675781 529.789062 373.246094 519.65625 373.246094 503.804688 Z M 401.027344 489.425781 C 412.703125 472.101562 428.746094 460.554688 446.265625 447.589844 C 422.910156 446.175781 401.027344 443.289062 380.558594 436.042969 C 386.398438 453.367188 393.710938 470.6875 401.027344 489.425781 Z M 401.027344 489.425781 " fill-opacity="1" fill-rule="nonzero"/></svg>