<svg xmlns="http://www.w3.org/2000/svg" xmlns:xlink="http://www.w3.org/1999/xlink" width="1024" zoomAndPan="magnify" viewBox="0 0 768 767.999994" height="1024" preserveAspectRatio="xMidYMid meet" version="1.0"><defs><clipPath id="id1"><path d="M 82.886719 89 L 685.136719 89 L 685.136719 677 L 82.886719 677 Z M 82.886719 89 " clip-rule="nonzero"/></clipPath></defs><g clip-path="url(#id1)"><path fill="rgb(24.708557%, 50.979614%, 72.549438%)" d="M 383.988281 89.164062 C 217.714844 89.164062 82.886719 223.992188 82.886719 390.3125 C 82.886719 523.335938 169.160156 636.207031 288.832031 676.03125 C 303.886719 678.789062 309.382812 669.503906 309.382812 661.527344 C 309.382812 654.375 309.132812 635.429688 308.984375 610.308594 C 225.21875 628.503906 207.554688 569.933594 207.554688 569.933594 C 193.851562 535.152344 174.128906 525.894531 174.128906 525.894531 C 146.777344 507.199219 176.1875 507.601562 176.1875 507.601562 C 206.398438 509.734375 222.308594 538.640625 222.308594 538.640625 C 249.160156 584.664062 292.796875 571.363281 309.9375 563.660156 C 312.671875 544.210938 320.449219 530.9375 329.058594 523.410156 C 262.183594 515.804688 191.894531 489.984375 191.894531 374.578125 C 191.894531 341.707031 203.640625 314.832031 222.886719 293.777344 C 219.800781 286.148438 209.460938 255.535156 225.847656 214.078125 C 225.847656 214.078125 251.140625 205.972656 308.65625 244.945312 C 332.671875 238.269531 358.441406 234.933594 384.039062 234.804688 C 409.609375 234.933594 435.378906 238.269531 459.417969 244.945312 C 516.910156 205.972656 542.152344 214.078125 542.152344 214.078125 C 558.589844 255.535156 548.25 286.148438 545.140625 293.777344 C 564.4375 314.832031 576.082031 341.707031 576.082031 374.578125 C 576.082031 490.261719 505.667969 515.707031 438.589844 523.160156 C 449.40625 532.445312 459.042969 550.835938 459.042969 578.917969 C 459.042969 619.167969 458.667969 651.640625 458.667969 661.527344 C 458.667969 669.582031 464.085938 678.941406 479.367188 676.003906 C 598.941406 636.082031 685.136719 523.308594 685.136719 390.3125 C 685.136719 223.992188 550.308594 89.164062 383.988281 89.164062 Z M 383.988281 89.164062 " fill-opacity="1" fill-rule="evenodd"/></g></svg>