<svg xmlns="http://www.w3.org/2000/svg" xmlns:xlink="http://www.w3.org/1999/xlink" width="1024" zoomAndPan="magnify" viewBox="0 0 768 767.999994" height="1024" preserveAspectRatio="xMidYMid meet" version="1.0"><defs><clipPath id="id1"><path d="M 107.824219 94.121094 L 659.824219 94.121094 L 659.824219 673.871094 L 107.824219 673.871094 Z M 107.824219 94.121094 " clip-rule="nonzero"/></clipPath></defs><g clip-path="url(#id1)"><path fill="rgb(24.708557%, 50.979614%, 72.549438%)" d="M 146.671875 94.71875 L 107.824219 194.023438 L 107.824219 599.871094 L 245.90625 599.871094 L 245.90625 673.273438 L 323.574219 673.273438 L 396.933594 599.871094 L 509.121094 599.871094 L 660.140625 448.757812 L 660.140625 94.71875 Z M 608.363281 422.867188 L 522.050781 509.199219 L 383.976562 509.199219 L 310.621094 582.605469 L 310.621094 509.199219 L 194.121094 509.199219 L 194.121094 146.515625 L 608.347656 146.515625 L 608.347656 422.867188 Z M 522.050781 245.832031 L 522.050781 396.941406 L 470.285156 396.941406 L 470.285156 245.832031 Z M 383.96875 245.832031 L 383.96875 396.941406 L 332.203125 396.941406 L 332.203125 245.832031 Z M 383.96875 245.832031 " fill-opacity="1" fill-rule="evenodd"/></g></svg>